<svg id="visual" viewBox="0 0 1920 1080" width="1920" height="1080" xmlns="http://www.w3.org/2000/svg" xmlns:xlink="http://www.w3.org/1999/xlink" version="1.1"><rect x="0" y="0" width="1920" height="1080" fill="#eef3f9"></rect><defs><linearGradient id="grad1_0" x1="43.8%" y1="0%" x2="100%" y2="100%"><stop offset="14.444444444444446%" stop-color="#eef3f9" stop-opacity="1"></stop><stop offset="85.55555555555554%" stop-color="#eef3f9" stop-opacity="1"></stop></linearGradient></defs><defs><linearGradient id="grad2_0" x1="0%" y1="0%" x2="56.3%" y2="100%"><stop offset="14.444444444444446%" stop-color="#eef3f9" stop-opacity="1"></stop><stop offset="85.55555555555554%" stop-color="#eef3f9" stop-opacity="1"></stop></linearGradient></defs><g transform="translate(1920, 0)"><path d="M0 756C-85.4 720.1 -170.8 684.2 -271.7 656C-372.7 627.7 -489.2 607.1 -534.6 534.6C-580 462.1 -554.2 337.7 -579.3 239.9C-604.3 142.2 -680.2 71.1 -756 0L0 0Z" fill="#FBAE3C"></path></g><g transform="translate(0, 1080)"><path d="M0 -756C101.8 -748.3 203.5 -740.6 289.3 -698.5C375.1 -656.3 444.9 -579.7 504.2 -504.2C563.4 -428.6 612.1 -354 652.3 -270.2C692.5 -186.3 724.2 -93.2 756 0L0 0Z" fill="#FBAE3C"></path></g></svg>