<svg id="visual" viewBox="0 0 900 100" width="900" height="100" xmlns="http://www.w3.org/2000/svg" xmlns:xlink="http://www.w3.org/1999/xlink" version="1.1"><rect x="0" y="0" width="900" height="100" fill="#001220"></rect><defs><linearGradient id="grad1_0" x1="88.9%" y1="100%" x2="100%" y2="0%"><stop offset="-130%" stop-color="#fbae3c" stop-opacity="1"></stop><stop offset="230%" stop-color="#fbae3c" stop-opacity="1"></stop></linearGradient></defs><defs><linearGradient id="grad1_1" x1="88.9%" y1="100%" x2="100%" y2="0%"><stop offset="-130%" stop-color="#fbae3c" stop-opacity="1"></stop><stop offset="230%" stop-color="#f48350" stop-opacity="1"></stop></linearGradient></defs><defs><linearGradient id="grad1_2" x1="88.9%" y1="100%" x2="100%" y2="0%"><stop offset="-130%" stop-color="#d96162" stop-opacity="1"></stop><stop offset="230%" stop-color="#f48350" stop-opacity="1"></stop></linearGradient></defs><defs><linearGradient id="grad1_3" x1="88.9%" y1="100%" x2="100%" y2="0%"><stop offset="-130%" stop-color="#d96162" stop-opacity="1"></stop><stop offset="230%" stop-color="#af4b6d" stop-opacity="1"></stop></linearGradient></defs><defs><linearGradient id="grad1_4" x1="88.9%" y1="100%" x2="100%" y2="0%"><stop offset="-130%" stop-color="#7c3e6b" stop-opacity="1"></stop><stop offset="230%" stop-color="#af4b6d" stop-opacity="1"></stop></linearGradient></defs><defs><linearGradient id="grad1_5" x1="88.9%" y1="100%" x2="100%" y2="0%"><stop offset="-130%" stop-color="#7c3e6b" stop-opacity="1"></stop><stop offset="230%" stop-color="#49335c" stop-opacity="1"></stop></linearGradient></defs><defs><linearGradient id="grad1_6" x1="88.9%" y1="100%" x2="100%" y2="0%"><stop offset="-130%" stop-color="#1d2540" stop-opacity="1"></stop><stop offset="230%" stop-color="#49335c" stop-opacity="1"></stop></linearGradient></defs><defs><linearGradient id="grad1_7" x1="88.9%" y1="100%" x2="100%" y2="0%"><stop offset="-130%" stop-color="#1d2540" stop-opacity="1"></stop><stop offset="230%" stop-color="#001220" stop-opacity="1"></stop></linearGradient></defs><defs><linearGradient id="grad2_0" x1="0%" y1="100%" x2="11.1%" y2="0%"><stop offset="-130%" stop-color="#fbae3c" stop-opacity="1"></stop><stop offset="230%" stop-color="#fbae3c" stop-opacity="1"></stop></linearGradient></defs><defs><linearGradient id="grad2_1" x1="0%" y1="100%" x2="11.1%" y2="0%"><stop offset="-130%" stop-color="#f48350" stop-opacity="1"></stop><stop offset="230%" stop-color="#fbae3c" stop-opacity="1"></stop></linearGradient></defs><defs><linearGradient id="grad2_2" x1="0%" y1="100%" x2="11.1%" y2="0%"><stop offset="-130%" stop-color="#f48350" stop-opacity="1"></stop><stop offset="230%" stop-color="#d96162" stop-opacity="1"></stop></linearGradient></defs><defs><linearGradient id="grad2_3" x1="0%" y1="100%" x2="11.1%" y2="0%"><stop offset="-130%" stop-color="#af4b6d" stop-opacity="1"></stop><stop offset="230%" stop-color="#d96162" stop-opacity="1"></stop></linearGradient></defs><defs><linearGradient id="grad2_4" x1="0%" y1="100%" x2="11.1%" y2="0%"><stop offset="-130%" stop-color="#af4b6d" stop-opacity="1"></stop><stop offset="230%" stop-color="#7c3e6b" stop-opacity="1"></stop></linearGradient></defs><defs><linearGradient id="grad2_5" x1="0%" y1="100%" x2="11.1%" y2="0%"><stop offset="-130%" stop-color="#49335c" stop-opacity="1"></stop><stop offset="230%" stop-color="#7c3e6b" stop-opacity="1"></stop></linearGradient></defs><defs><linearGradient id="grad2_6" x1="0%" y1="100%" x2="11.1%" y2="0%"><stop offset="-130%" stop-color="#49335c" stop-opacity="1"></stop><stop offset="230%" stop-color="#1d2540" stop-opacity="1"></stop></linearGradient></defs><defs><linearGradient id="grad2_7" x1="0%" y1="100%" x2="11.1%" y2="0%"><stop offset="-130%" stop-color="#001220" stop-opacity="1"></stop><stop offset="230%" stop-color="#1d2540" stop-opacity="1"></stop></linearGradient></defs><g transform="translate(900, 100)"><path d="M-95 0C-90 -11.2 -85 -22.4 -80.4 -33.3C-75.7 -44.2 -71.4 -54.7 -64.3 -64.3C-57.3 -74 -47.5 -82.8 -36.4 -87.8C-25.2 -92.7 -12.6 -93.9 0 -95L0 0Z" fill="#0c1c30"></path><path d="M-83.1 0C-78.8 -9.8 -74.4 -19.6 -70.3 -29.1C-66.3 -38.6 -62.5 -47.9 -56.3 -56.3C-50.1 -64.8 -41.6 -72.5 -31.8 -76.8C-22 -81.1 -11 -82.1 0 -83.1L0 0Z" fill="#312c4f"></path><path d="M-71.2 0C-67.5 -8.4 -63.8 -16.8 -60.3 -25C-56.8 -33.1 -53.5 -41 -48.3 -48.3C-43 -55.5 -35.6 -62.1 -27.3 -65.8C-18.9 -69.6 -9.4 -70.4 0 -71.2L0 0Z" fill="#623965"></path><path d="M-59.4 0C-56.3 -7 -53.1 -14 -50.2 -20.8C-47.3 -27.6 -44.6 -34.2 -40.2 -40.2C-35.8 -46.3 -29.7 -51.8 -22.7 -54.9C-15.7 -58 -7.9 -58.7 0 -59.4L0 0Z" fill="#96446e"></path><path d="M-47.5 0C-45 -5.6 -42.5 -11.2 -40.2 -16.6C-37.9 -22.1 -35.7 -27.3 -32.2 -32.2C-28.6 -37 -23.8 -41.4 -18.2 -43.9C-12.6 -46.4 -6.3 -46.9 0 -47.5L0 0Z" fill="#c55469"></path><path d="M-35.6 0C-33.8 -4.2 -31.9 -8.4 -30.1 -12.5C-28.4 -16.6 -26.8 -20.5 -24.1 -24.1C-21.5 -27.8 -17.8 -31.1 -13.6 -32.9C-9.4 -34.8 -4.7 -35.2 0 -35.6L0 0Z" fill="#e9705a"></path><path d="M-23.7 0C-22.5 -2.8 -21.3 -5.6 -20.1 -8.3C-18.9 -11 -17.8 -13.7 -16.1 -16.1C-14.3 -18.5 -11.9 -20.7 -9.1 -21.9C-6.3 -23.2 -3.1 -23.5 0 -23.7L0 0Z" fill="#fa9845"></path><path d="M-11.9 0C-11.3 -1.4 -10.6 -2.8 -10 -4.2C-9.5 -5.5 -8.9 -6.8 -8 -8C-7.2 -9.3 -5.9 -10.4 -4.5 -11C-3.1 -11.6 -1.6 -11.7 0 -11.9L0 0Z" fill="#fbae3c"></path></g><g transform="translate(0, 0)"><path d="M95 0C93 12.4 91 24.9 85.9 35.6C80.9 46.3 72.8 55.3 64.3 64.3C55.9 73.4 47.1 82.6 36.4 87.8C25.6 92.9 12.8 93.9 0 95L0 0Z" fill="#0c1c30"></path><path d="M83.1 0C81.4 10.9 79.6 21.8 75.2 31.1C70.8 40.5 63.7 48.4 56.3 56.3C48.9 64.3 41.2 72.3 31.8 76.8C22.4 81.3 11.2 82.2 0 83.1L0 0Z" fill="#312c4f"></path><path d="M71.3 0C69.7 9.3 68.2 18.7 64.4 26.7C60.7 34.7 54.6 41.4 48.3 48.3C41.9 55.1 35.4 62 27.3 65.8C19.2 69.7 9.6 70.5 0 71.3L0 0Z" fill="#623965"></path><path d="M59.4 0C58.1 7.8 56.9 15.6 53.7 22.2C50.5 28.9 45.5 34.5 40.2 40.2C34.9 45.9 29.5 51.6 22.7 54.9C16 58.1 8 58.7 0 59.4L0 0Z" fill="#96446e"></path><path d="M47.5 0C46.5 6.2 45.5 12.4 43 17.8C40.4 23.1 36.4 27.6 32.2 32.2C28 36.7 23.6 41.3 18.2 43.9C12.8 46.4 6.4 47 0 47.5L0 0Z" fill="#c55469"></path><path d="M35.6 0C34.9 4.7 34.1 9.3 32.2 13.3C30.3 17.4 27.3 20.7 24.1 24.1C21 27.5 17.7 31 13.6 32.9C9.6 34.8 4.8 35.2 0 35.6L0 0Z" fill="#e9705a"></path><path d="M23.8 0C23.2 3.1 22.7 6.2 21.5 8.9C20.2 11.6 18.2 13.8 16.1 16.1C14 18.4 11.8 20.7 9.1 21.9C6.4 23.2 3.2 23.5 0 23.8L0 0Z" fill="#fa9845"></path><path d="M11.9 0C11.6 1.6 11.4 3.1 10.7 4.4C10.1 5.8 9.1 6.9 8 8C7 9.2 5.9 10.3 4.5 11C3.2 11.6 1.6 11.7 0 11.9L0 0Z" fill="#fbae3c"></path></g></svg>