<svg id="visual" viewBox="0 0 1920 1080" width="1920" height="1080" xmlns="http://www.w3.org/2000/svg" xmlns:xlink="http://www.w3.org/1999/xlink" version="1.1"><path d="M0 239L29.2 231.7C58.3 224.3 116.7 209.7 174.8 200.7C233 191.7 291 188.3 349.2 186.7C407.3 185 465.7 185 523.8 172.3C582 159.7 640 134.3 698.2 139.7C756.3 145 814.7 181 872.8 182.8C931 184.7 989 152.3 1047.2 138C1105.3 123.7 1163.7 127.3 1221.8 134.5C1280 141.7 1338 152.3 1396.2 152.3C1454.3 152.3 1512.7 141.7 1570.8 143.5C1629 145.3 1687 159.7 1745.2 156C1803.3 152.3 1861.7 130.7 1890.8 119.8L1920 109L1920 0L1890.8 0C1861.7 0 1803.3 0 1745.2 0C1687 0 1629 0 1570.8 0C1512.7 0 1454.3 0 1396.2 0C1338 0 1280 0 1221.8 0C1163.7 0 1105.3 0 1047.2 0C989 0 931 0 872.8 0C814.7 0 756.3 0 698.2 0C640 0 582 0 523.8 0C465.7 0 407.3 0 349.2 0C291 0 233 0 174.8 0C116.7 0 58.3 0 29.2 0L0 0Z" fill="#004e70"></path><path d="M0 627L29.2 618C58.3 609 116.7 591 174.8 560.5C233 530 291 487 349.2 483.5C407.3 480 465.7 516 523.8 552C582 588 640 624 698.2 642C756.3 660 814.7 660 872.8 640.2C931 620.3 989 580.7 1047.2 539.2C1105.3 497.7 1163.7 454.3 1221.8 458C1280 461.7 1338 512.3 1396.2 526.8C1454.3 541.3 1512.7 519.7 1570.8 512.3C1629 505 1687 512 1745.2 492.2C1803.3 472.3 1861.7 425.7 1890.8 402.3L1920 379L1920 107L1890.8 117.8C1861.7 128.7 1803.3 150.3 1745.2 154C1687 157.7 1629 143.3 1570.8 141.5C1512.7 139.7 1454.3 150.3 1396.2 150.3C1338 150.3 1280 139.7 1221.8 132.5C1163.7 125.3 1105.3 121.7 1047.2 136C989 150.3 931 182.7 872.8 180.8C814.7 179 756.3 143 698.2 137.7C640 132.3 582 157.7 523.8 170.3C465.7 183 407.3 183 349.2 184.7C291 186.3 233 189.7 174.8 198.7C116.7 207.7 58.3 222.3 29.2 229.7L0 237Z" fill="#003750"></path><path d="M0 854L29.2 843.2C58.3 832.3 116.7 810.7 174.8 780.2C233 749.7 291 710.3 349.2 690.7C407.3 671 465.7 671 523.8 685.3C582 699.7 640 728.3 698.2 740.8C756.3 753.3 814.7 749.7 872.8 746C931 742.3 989 738.7 1047.2 706.3C1105.3 674 1163.7 613 1221.8 613C1280 613 1338 674 1396.2 699.2C1454.3 724.3 1512.7 713.7 1570.8 712C1629 710.3 1687 717.7 1745.2 697.8C1803.3 678 1861.7 631 1890.8 607.5L1920 584L1920 377L1890.8 400.3C1861.7 423.7 1803.3 470.3 1745.2 490.2C1687 510 1629 503 1570.8 510.3C1512.7 517.7 1454.3 539.3 1396.2 524.8C1338 510.3 1280 459.7 1221.8 456C1163.7 452.3 1105.3 495.7 1047.2 537.2C989 578.7 931 618.3 872.8 638.2C814.7 658 756.3 658 698.2 640C640 622 582 586 523.8 550C465.7 514 407.3 478 349.2 481.5C291 485 233 528 174.8 558.5C116.7 589 58.3 607 29.2 616L0 625Z" fill="#002233"></path><path d="M0 930L29.2 926.3C58.3 922.7 116.7 915.3 174.8 886.5C233 857.7 291 807.3 349.2 794.8C407.3 782.3 465.7 807.7 523.8 820.3C582 833 640 833 698.2 836.5C756.3 840 814.7 847 872.8 857.7C931 868.3 989 882.7 1047.2 846.7C1105.3 810.7 1163.7 724.3 1221.8 713.7C1280 703 1338 768 1396.2 807.7C1454.3 847.3 1512.7 861.7 1570.8 870.7C1629 879.7 1687 883.3 1745.2 858.2C1803.3 833 1861.7 779 1890.8 752L1920 725L1920 582L1890.8 605.5C1861.7 629 1803.3 676 1745.2 695.8C1687 715.7 1629 708.3 1570.8 710C1512.7 711.7 1454.3 722.3 1396.2 697.2C1338 672 1280 611 1221.8 611C1163.7 611 1105.3 672 1047.2 704.3C989 736.7 931 740.3 872.8 744C814.7 747.7 756.3 751.3 698.2 738.8C640 726.3 582 697.7 523.8 683.3C465.7 669 407.3 669 349.2 688.7C291 708.3 233 747.7 174.8 778.2C116.7 808.7 58.3 830.3 29.2 841.2L0 852Z" fill="#031e2c"></path><path d="M0 1081L29.2 1081C58.3 1081 116.7 1081 174.8 1081C233 1081 291 1081 349.2 1081C407.3 1081 465.7 1081 523.8 1081C582 1081 640 1081 698.2 1081C756.3 1081 814.7 1081 872.8 1081C931 1081 989 1081 1047.2 1081C1105.3 1081 1163.7 1081 1221.8 1081C1280 1081 1338 1081 1396.2 1081C1454.3 1081 1512.7 1081 1570.8 1081C1629 1081 1687 1081 1745.2 1081C1803.3 1081 1861.7 1081 1890.8 1081L1920 1081L1920 723L1890.8 750C1861.7 777 1803.3 831 1745.2 856.2C1687 881.3 1629 877.7 1570.8 868.7C1512.7 859.7 1454.3 845.3 1396.2 805.7C1338 766 1280 701 1221.8 711.7C1163.7 722.3 1105.3 808.7 1047.2 844.7C989 880.7 931 866.3 872.8 855.7C814.7 845 756.3 838 698.2 834.5C640 831 582 831 523.8 818.3C465.7 805.7 407.3 780.3 349.2 792.8C291 805.3 233 855.7 174.8 884.5C116.7 913.3 58.3 920.7 29.2 924.3L0 928Z" fill="#051b26"></path></svg>