<svg id="visual" viewBox="0 0 1920 1080" width="1920" height="1080" xmlns="http://www.w3.org/2000/svg" xmlns:xlink="http://www.w3.org/1999/xlink" version="1.1"><path d="M0 641L64 600.2C128 559.3 256 477.7 384 502.7C512 527.7 640 659.3 768 722.8C896 786.3 1024 781.7 1152 722.3C1280 663 1408 549 1536 513.8C1664 478.7 1792 522.3 1856 544.2L1920 566L1920 1081L1856 1081C1792 1081 1664 1081 1536 1081C1408 1081 1280 1081 1152 1081C1024 1081 896 1081 768 1081C640 1081 512 1081 384 1081C256 1081 128 1081 64 1081L0 1081Z" fill="#ffa600" stroke-linecap="round" stroke-linejoin="miter"></path></svg>